<?xml version="1.0" standalone="no"?>
<!DOCTYPE svg PUBLIC "-//W3C//DTD SVG 20010904//EN"
 "http://www.w3.org/TR/2001/REC-SVG-20010904/DTD/svg10.dtd">
<svg version="1.0" xmlns="http://www.w3.org/2000/svg"
 width="602.000000pt" height="602.000000pt" viewBox="0 0 602.000000 602.000000"
 preserveAspectRatio="xMidYMid meet">
<metadata>
Created by potrace 1.14, written by Peter Selinger 2001-2017
</metadata>
<g transform="translate(0.000000,602.000000) scale(0.100000,-0.100000)"
fill="#000000" stroke="none">
<path d="M2850 5397 c-14 -12 -99 -88 -190 -167 -91 -80 -167 -147 -170 -150
-8 -8 -88 -78 -156 -137 -33 -29 -78 -69 -100 -89 -21 -19 -59 -54 -84 -77
-25 -23 -63 -57 -85 -76 -50 -43 -170 -149 -250 -221 -61 -55 -189 -169 -229
-203 -12 -10 -55 -49 -96 -87 -41 -37 -122 -109 -180 -160 -58 -51 -126 -112
-151 -134 -25 -23 -74 -66 -109 -96 -85 -73 -252 -222 -320 -287 -30 -28 -73
-66 -95 -83 -22 -17 -42 -35 -45 -39 -3 -4 -63 -58 -135 -120 -165 -143 -187
-162 -271 -239 l-69 -64 80 -74 c44 -40 133 -120 197 -176 65 -58 115 -109
113 -116 -3 -7 0 -10 6 -6 6 3 19 -2 29 -12 9 -11 28 -28 41 -38 28 -22 188
-167 269 -242 30 -28 91 -82 135 -119 44 -38 89 -78 100 -89 11 -12 40 -39 65
-60 25 -22 70 -62 101 -90 30 -28 95 -87 144 -131 164 -147 178 -160 200 -180
23 -22 169 -152 224 -200 49 -42 136 -121 201 -181 30 -28 75 -69 100 -92 25
-22 65 -59 90 -81 25 -23 74 -67 109 -99 36 -31 94 -84 130 -117 37 -34 84
-76 106 -94 109 -91 175 -156 171 -168 -3 -6 1 -10 7 -7 7 2 22 -4 32 -14 11
-10 39 -35 62 -56 l43 -38 28 29 c16 15 42 39 58 53 16 14 63 55 104 91 41 35
95 83 120 105 47 43 113 102 246 219 43 38 106 95 139 125 72 67 67 63 145
130 64 55 204 179 335 296 39 34 81 72 95 84 80 68 149 130 185 163 22 21 59
54 82 73 23 19 55 47 70 62 15 15 69 63 118 107 50 44 92 82 95 85 3 3 39 34
80 69 41 36 80 69 85 75 6 6 33 31 60 55 28 25 77 70 110 100 34 31 87 79 120
106 32 28 70 61 84 74 14 13 57 51 95 85 110 97 238 210 274 241 35 31 40 49
17 62 -14 8 -145 125 -205 183 -14 14 -59 54 -100 90 -41 36 -80 70 -86 75 -6
6 -47 42 -90 81 -44 40 -94 85 -111 100 -17 16 -59 54 -94 84 -34 30 -67 60
-73 65 -6 6 -51 46 -101 89 -49 44 -124 113 -165 153 -41 41 -76 74 -78 73 -3
-1 -103 86 -162 140 -9 8 -36 33 -60 54 -72 63 -209 186 -280 251 -36 33 -81
73 -100 89 -31 26 -91 80 -279 251 -55 51 -50 46 -151 135 -47 41 -89 80 -95
86 -5 6 -73 67 -150 135 -77 68 -142 126 -145 129 -3 3 -43 39 -90 80 -46 41
-91 81 -98 88 -18 17 -23 16 -52 -11z m-916 -1971 c31 -20 32 -30 7 -55 -16
-16 -25 -17 -72 -9 -61 11 -158 2 -165 -15 -2 -7 -8 -34 -13 -60 l-9 -48 112
3 c108 3 111 2 114 -19 5 -35 -33 -51 -143 -60 l-100 -8 -12 -48 c-18 -74 -16
-76 105 -79 114 -3 129 -11 98 -53 -13 -18 -26 -20 -129 -20 -99 0 -118 3
-136 19 -28 25 -28 104 -2 218 11 46 24 116 30 156 5 41 12 76 14 79 3 2 31 6
63 9 31 2 60 7 63 10 12 12 150 -3 175 -20z m1396 -3 c34 -20 37 -33 12 -56
-14 -13 -25 -14 -62 -6 -39 9 -155 7 -165 -3 -2 -1 -6 -23 -10 -48 l-7 -45 91
0 c103 0 121 -9 103 -50 -11 -23 -16 -25 -81 -25 -37 0 -82 -3 -99 -6 -29 -6
-30 -7 -43 -100 -13 -94 -32 -134 -63 -134 -32 0 -36 25 -21 131 24 165 56
333 67 346 22 27 230 25 278 -4z m755 13 c49 -14 59 -46 23 -70 -19 -12 -31
-13 -65 -4 -42 10 -137 4 -159 -10 -6 -4 -14 -31 -18 -60 l-7 -53 104 7 c104
7 105 7 112 -16 13 -41 -21 -57 -135 -66 -55 -3 -103 -11 -106 -16 -3 -4 -8
-33 -11 -63 l-6 -54 109 -3 c100 -3 109 -5 112 -23 5 -41 -11 -48 -120 -52
-85 -4 -109 -1 -138 14 -33 17 -35 21 -38 74 -2 35 7 99 23 167 14 61 25 129
25 153 0 48 29 82 64 74 11 -3 37 -1 56 4 50 13 128 11 175 -3z m579 8 c20 -8
20 -46 2 -144 -8 -41 -14 -76 -13 -77 1 -1 54 6 117 16 l115 17 13 63 c14 71
44 121 72 121 29 0 32 -15 20 -78 -7 -31 -20 -97 -30 -147 -11 -49 -22 -118
-25 -152 -8 -70 -22 -88 -61 -79 -26 7 -26 8 -20 74 4 37 9 79 12 95 6 27 5
27 -33 21 -21 -4 -74 -11 -118 -18 l-79 -11 -18 -85 c-20 -98 -47 -132 -78
-95 -10 12 -6 48 20 182 18 93 37 192 42 220 5 29 16 60 24 68 18 17 17 17 38
9z m-2596 -47 c2 -15 -11 -102 -29 -193 -17 -90 -29 -167 -26 -170 5 -5 122
15 184 32 32 9 49 -27 25 -55 -31 -38 -235 -76 -281 -52 -28 15 -27 32 8 198
16 76 32 161 36 188 8 57 30 87 59 83 15 -2 22 -12 24 -31z m1522 12 c140 -63
156 -194 30 -257 l-40 -19 33 -23 c17 -12 43 -36 56 -52 20 -25 22 -33 13 -54
-17 -35 -50 -30 -97 15 -42 40 -113 81 -140 81 -11 0 -15 -10 -15 -38 0 -21
-7 -48 -16 -60 -15 -22 -58 -30 -68 -13 -3 5 3 67 14 138 34 220 46 275 66
290 27 20 112 16 164 -8z m-2501 -14 c19 -18 9 -29 -67 -80 -71 -46 -281 -250
-270 -261 4 -3 62 -6 130 -5 95 2 128 -1 143 -13 l20 -15 -20 -20 c-18 -19
-34 -20 -198 -22 -115 -1 -182 2 -189 9 -22 22 6 62 145 205 79 81 141 147
138 148 -3 0 -52 0 -108 -1 -93 -1 -103 1 -113 19 -8 16 -7 24 8 39 18 18 33
19 193 14 123 -3 178 -8 188 -17z m396 -9 c42 -28 64 -72 60 -124 -6 -74 -16
-104 -50 -157 -87 -136 -202 -185 -314 -135 -106 48 -127 130 -67 256 36 76
107 148 168 171 46 18 170 11 203 -11z m1129 8 c3 -9 6 -33 6 -55 0 -22 7
-105 15 -185 16 -154 13 -174 -26 -174 -23 0 -49 48 -49 90 0 39 -14 44 -92
33 -62 -8 -63 -8 -101 -65 -29 -45 -43 -58 -63 -58 -14 0 -27 7 -31 17 -7 19
53 141 79 161 10 7 39 41 65 75 70 91 154 177 173 177 10 0 21 -7 24 -16z
m1874 -5 c27 -17 28 -31 4 -52 -15 -13 -31 -15 -83 -11 -51 5 -74 3 -102 -10
-68 -33 -52 -76 29 -76 67 0 103 -11 134 -40 25 -24 30 -36 30 -76 0 -61 -30
-101 -102 -136 -134 -66 -298 -37 -298 53 0 51 74 67 87 19 7 -25 41 -34 104
-27 80 10 137 55 124 97 -7 23 -22 28 -103 35 -109 9 -153 46 -132 110 12 36
69 92 123 120 38 19 150 16 185 -6z m-1978 -811 c34 -18 46 -29 48 -50 5 -42
-27 -54 -79 -27 -54 27 -77 20 -130 -38 -58 -67 -93 -145 -94 -212 0 -52 1
-55 30 -62 44 -12 97 6 138 48 49 48 49 66 0 57 -21 -4 -52 -12 -69 -19 -54
-22 -88 21 -46 58 25 23 126 47 198 47 79 0 87 -16 47 -90 -64 -120 -148 -183
-244 -184 -95 -1 -139 39 -139 127 0 153 156 365 270 367 14 0 46 -10 70 -22z
m247 5 c5 -13 -9 -107 -29 -193 -2 -10 4 -14 17 -13 190 23 215 28 219 43 3 8
10 40 16 70 13 71 51 116 81 99 14 -7 19 -18 16 -32 -2 -12 -14 -62 -25 -112
-11 -49 -26 -130 -32 -180 -14 -112 -25 -137 -59 -133 -24 3 -26 6 -26 58 0
30 3 73 5 95 l5 40 -50 -3 c-27 -2 -79 -9 -114 -15 l-65 -12 -17 -75 c-25
-111 -36 -128 -74 -114 -21 8 -19 35 14 202 16 81 32 172 36 202 4 30 14 63
22 73 20 22 52 22 60 0z m1026 -32 c18 -11 46 -34 62 -51 56 -58 31 -156 -50
-194 -39 -19 -44 -32 -16 -41 31 -9 83 -74 79 -98 -2 -13 -14 -25 -31 -31 -24
-9 -32 -6 -70 31 -45 44 -134 96 -148 87 -5 -3 -9 -22 -9 -42 0 -47 -25 -84
-53 -80 -20 3 -22 8 -20 69 3 103 49 338 70 361 16 18 26 20 86 15 42 -4 80
-14 100 -26z m-2313 -96 c27 -58 52 -105 54 -105 7 0 106 149 106 160 0 5 4
10 9 10 5 0 11 9 14 21 8 29 61 23 65 -7 5 -38 -254 -434 -284 -434 -3 0 -14
5 -25 11 -25 13 -19 37 27 100 19 26 34 50 34 53 0 4 -27 61 -60 127 -33 66
-60 125 -60 132 0 20 22 37 47 37 20 0 31 -16 73 -105z m640 87 c77 -41 89
-145 31 -261 -57 -116 -133 -173 -235 -175 -126 -2 -203 72 -190 182 13 98 98
212 188 253 55 25 159 25 206 1z m1093 5 c3 -7 -4 -55 -14 -107 -37 -193 -21
-256 62 -254 38 1 48 7 81 44 39 44 69 125 83 225 10 74 29 105 65 105 26 0
30 -3 30 -29 0 -49 -41 -212 -66 -267 -27 -58 -63 -100 -113 -134 -68 -47
-186 -25 -225 40 -31 53 -12 281 30 362 15 30 58 39 67 15z m1147 -16 c0 -37
-33 -51 -120 -49 l-65 2 -18 -159 c-19 -165 -29 -195 -69 -195 -10 0 -21 7
-24 14 -5 13 5 149 22 289 l6 47 -66 0 c-72 0 -84 9 -72 55 l6 25 200 0 200 0
0 -29z"/>
<path d="M3463 3278 c-6 -40 -7 -76 -4 -81 11 -12 97 4 130 24 55 33 31 91
-48 118 -63 21 -66 18 -78 -61z"/>
<path d="M1278 3314 c-38 -21 -83 -81 -102 -137 -21 -63 -21 -70 10 -106 68
-82 197 -35 255 93 20 44 25 121 9 146 -13 21 -136 24 -172 4z"/>
<path d="M2500 3224 c-18 -25 -30 -47 -28 -49 1 -1 18 0 36 2 30 5 32 7 32 49
0 24 -2 44 -5 44 -2 0 -18 -21 -35 -46z"/>
<path d="M3650 2498 c-1 -2 -7 -36 -14 -75 l-12 -73 50 0 c126 0 158 91 49
136 -28 12 -72 19 -73 12z"/>
<path d="M1893 2450 c-75 -55 -115 -174 -78 -227 22 -31 85 -47 134 -33 44 12
102 70 126 126 20 48 20 128 -1 148 -11 11 -34 16 -78 16 -53 0 -68 -4 -103
-30z"/>
<path d="M227 3133 c7 -17 21 -16 38 1 11 11 9 13 -14 12 -18 -1 -27 -5 -24
-13z"/>
<path d="M5420 2722 c-19 -19 -20 -22 -5 -14 37 21 47 29 39 34 -5 2 -20 -7
-34 -20z"/>
<path d="M295 2259 c-4 -6 -5 -12 -2 -15 2 -3 7 2 10 11 7 17 1 20 -8 4z"/>
<path d="M5387 2214 c-4 -4 -7 -19 -6 -33 l0 -26 10 24 c10 26 8 47 -4 35z"/>
<path d="M5682 2085 c0 -16 2 -22 5 -12 2 9 2 23 0 30 -3 6 -5 -1 -5 -18z"/>
<path d="M4525 1930 c-3 -6 1 -7 9 -4 18 7 21 14 7 14 -6 0 -13 -4 -16 -10z"/>
<path d="M4480 1890 c0 -5 7 -7 15 -4 8 4 15 8 15 10 0 2 -7 4 -15 4 -8 0 -15
-4 -15 -10z"/>
<path d="M5674 1846 c-8 -8 -8 -19 -1 -36 l10 -25 4 23 c7 35 0 53 -13 38z"/>
<path d="M5305 1761 c-3 -5 -1 -12 5 -16 5 -3 10 1 10 9 0 18 -6 21 -15 7z"/>
<path d="M4960 1574 c0 -14 22 -44 30 -39 13 8 0 45 -16 45 -8 0 -14 -3 -14
-6z"/>
<path d="M5281 1394 c0 -11 3 -14 6 -6 3 7 2 16 -1 19 -3 4 -6 -2 -5 -13z"/>
<path d="M4370 1371 c0 -11 -7 -24 -17 -29 -10 -6 -14 -16 -9 -27 5 -13 9 -15
20 -6 16 14 27 69 14 77 -4 3 -8 -4 -8 -15z"/>
<path d="M4564 775 c4 -44 11 -95 17 -113 6 -18 9 -60 6 -93 -3 -40 -1 -59 6
-56 30 10 14 295 -19 326 -15 15 -16 11 -10 -64z m13 3 c-3 -8 -6 -5 -6 6 -1
11 2 17 5 13 3 -3 4 -12 1 -19z"/>
<path d="M4393 665 c-13 -14 -18 -96 -7 -107 3 -3 14 -4 25 -1 22 6 26 33 4
33 -12 0 -15 10 -11 45 2 25 3 45 3 45 -1 -1 -8 -7 -14 -15z"/>
<path d="M4243 635 c0 -22 2 -30 4 -17 2 12 2 30 0 40 -3 9 -5 -1 -4 -23z"/>
<path d="M4490 575 c0 -8 -10 -23 -22 -34 -25 -24 -12 -33 37 -27 23 2 30 8
30 27 0 22 -20 48 -37 49 -5 0 -8 -7 -8 -15z m25 -24 c3 -5 1 -12 -5 -16 -5
-3 -10 1 -10 9 0 18 6 21 15 7z"/>
<path d="M4355 550 c3 -5 8 -10 11 -10 2 0 4 5 4 10 0 6 -5 10 -11 10 -5 0 -7
-4 -4 -10z"/>
</g>
</svg>
